<svg xmlns="http://www.w3.org/2000/svg" viewBox="0 0 1564 1228.44"><defs><style>.cls-1{font-size:354.73px;font-family:Soleil-Bold, Soleil;font-weight:700;}.cls-2{letter-spacing:-0.06em;}.cls-3{letter-spacing:0em;}.cls-4{font-size:156.08px;font-family:MerengueScript-Regular, Merengue Script;}</style></defs><g id="Vrstva_2" data-name="Vrstva 2"><g id="Vrstva_1-2" data-name="Vrstva 1"><text class="cls-1" transform="translate(0 992.01)"><tspan class="cls-2">P</tspan><tspan class="cls-3" x="185.53" y="0">A</tspan><tspan x="431.71" y="0">NTHER</tspan></text><text class="cls-4" transform="translate(534.46 1149.77)">Kapsle</text><path d="M775.75,0C635.6,0,517.28,93.42,479.64,221.38c16.8-22.8,40.76-42.63,79.31-61.17C640.84,120.82,697.27,125,747,126.63q6.26.48,12.5,1.14c-3.86-10.22-10.12-19.56-19.76-23.89,3.27-1.7,36.48-7.83,65.61,7.78,9.44,5,18,16.76,24.65,28.17,33.83,7.8,60.22,16.61,68.31,20.38,4.12,1.92,13.55,3.46,22.28,10.73,6.85,5.71,11.66,17.66,13.2,21.72,20.17,17.92,37.62,32.86,57.52,50.47a15.06,15.06,0,0,1,4.87,8.57,30.63,30.63,0,0,1-4.91,22.93,31.47,31.47,0,0,1-1.65,17.05,32.16,32.16,0,0,1-14.57,16.23l-35.49,25,2.17-11.31c1.47-7.66-3.65-12.86-11.15-15-2.79-.8-39-11.55-60.13,10.75-15.13,17.12-11.68,46.62,2.31,68.48a7.41,7.41,0,0,0,6,3.39c7,.24,13.91-.2,20.92.35l-20.07,28.6c-.06,3.14-.65,14.67-9.36,22.83-10.52,9.86-28.65,10.8-43.73,1.1a161.89,161.89,0,0,1-32.18-25.58c-12-12.46-22-26.13-41.25-33.56l-.07,0a24.53,24.53,0,0,0-10.44-1.3c-33.66,3.13-51,16.65-58.53,23.88-39.37,37.7-39.05,120.74,11.66,201.21a309,309,0,0,0,80,10.48c170.46,0,308.64-138.2,308.61-308.67S946.37,0,775.75,0Z"/><path d="M858.24,185.2a396.82,396.82,0,0,1-42.91-11.55A108.54,108.54,0,0,1,843.11,191c11.8,10.15,14.75,17.24,25.86,27a103.26,103.26,0,0,0,31.63,18.7c-1.81-1.57-12.71-11.4-12.65-26.95a34.82,34.82,0,0,1,5.68-18.7C882.64,189.69,870.79,187.84,858.24,185.2Z"/></g></g></svg>